<mxfile host="app.diagrams.net" modified="2023-06-09T03:18:47.425Z" agent="Mozilla/5.0 (Windows NT 10.0; Win64; x64) AppleWebKit/537.36 (KHTML, like Gecko) Chrome/114.0.0.0 Safari/537.36" version="21.3.7" etag="exWKTv_vZADa5W_tAJC3" type="github">
  <diagram name="Halaman-1" id="gvK-MRfTee7rELuYizZs">
    <mxGraphModel>
      <root>
        <mxCell id="0" />
        <mxCell id="1" parent="0" />
      </root>
    </mxGraphModel>
  </diagram>
</mxfile>
